<svg width="20" height="20" viewBox="0 0 20 20" fill="none" xmlns="http://www.w3.org/2000/svg">
<g clip-path="url(#clip0_38_115)">
<path d="M10 20C15.5228 20 20 15.5228 20 10C20 4.47715 15.5228 0 10 0C4.47715 0 0 4.47715 0 10C0 15.5228 4.47715 20 10 20Z" fill="url(#paint0_linear_38_115)"/>
<path d="M5.07406 8.35864C6.77719 9.37426 9.27719 10.7805 9.27719 10.7805L8.82406 9.43677C8.82406 9.43677 4.16782 7.18677 3.52719 6.23364C3.52719 6.24927 3.37094 7.34301 5.07406 8.35864Z" fill="white"/>
<path d="M13.7656 9.37549L10.7188 11.2192L10 13.0005L9.29688 11.2505L6.25001 9.40674C6.25001 9.40674 2.59376 7.21924 2.32812 6.35987C2.32812 6.35987 2.39064 8.03174 3.76564 8.96924C5.14064 9.90674 8.71875 11.9224 8.71875 11.9224L10 15.2505V15.2974L10.0156 15.2661L10.0312 15.3286V15.2192L11.3125 11.8911C11.3125 11.8911 14.9063 9.87549 16.2656 8.93799C17.6406 8.00049 17.7031 6.32861 17.7031 6.32861C17.4063 7.18799 13.7656 9.37549 13.7656 9.37549Z" fill="white"/>
<path d="M14.9219 8.32739C16.625 7.31177 16.4687 6.21802 16.4687 6.21802C15.8281 7.15552 11.1719 9.42114 11.1719 9.42114L10.7188 10.7649C10.7188 10.7493 13.2187 9.35864 14.9219 8.32739Z" fill="white"/>
<path d="M10.9063 9.43677L9.98438 7.76489L9.07812 9.43677L9.98438 12.5149L10.9063 9.43677Z" fill="white"/>
<path d="M8.65632 12.3911L5.03132 10.2349C5.03132 10.2349 4.96882 12.4224 8.65632 12.3911Z" fill="white"/>
<path d="M11.3281 12.3911C15.0156 12.4224 14.9531 10.2349 14.9531 10.2349L11.3281 12.3911Z" fill="white"/>
</g>
<defs>
<linearGradient id="paint0_linear_38_115" x1="2.08597" y1="11.5625" x2="31.7781" y2="11.602" gradientUnits="userSpaceOnUse">
<stop stop-color="#FE5E35"/>
<stop offset="0.55" stop-color="#F67702"/>
<stop offset="1" stop-color="#FFEF76"/>
</linearGradient>
<clipPath id="clip0_38_115">
<rect width="20" height="20" fill="white"/>
</clipPath>
</defs>
</svg>
