<svg width="30" height="30" viewBox="0 0 30 30" fill="none" xmlns="http://www.w3.org/2000/svg">
<g clip-path="url(#clip0_26_92)">
<path d="M12.6573 20.752L7 15.0934L8.88533 13.208L12.6573 16.9787L20.1987 9.43604L22.0853 11.3227L12.6573 20.752Z" fill="#2AED8F"/>
<path fill-rule="evenodd" clip-rule="evenodd" d="M0.335938 14.9999C0.335938 6.89992 6.9026 0.333252 15.0026 0.333252C23.1026 0.333252 29.6693 6.89992 29.6693 14.9999C29.6693 23.0999 23.1026 29.6666 15.0026 29.6666C6.9026 29.6666 0.335938 23.0999 0.335938 14.9999ZM15.0026 26.9999C13.4267 26.9999 11.8663 26.6895 10.4104 26.0865C8.9545 25.4834 7.63163 24.5995 6.51732 23.4852C5.40302 22.3709 4.51911 21.048 3.91605 19.5921C3.31299 18.1362 3.0026 16.5758 3.0026 14.9999C3.0026 13.4241 3.31299 11.8636 3.91605 10.4077C4.51911 8.95181 5.40302 7.62894 6.51732 6.51464C7.63163 5.40033 8.9545 4.51642 10.4104 3.91336C11.8663 3.31031 13.4267 2.99992 15.0026 2.99992C18.1852 2.99992 21.2374 4.2642 23.4879 6.51464C25.7383 8.76507 27.0026 11.8173 27.0026 14.9999C27.0026 18.1825 25.7383 21.2348 23.4879 23.4852C21.2374 25.7356 18.1852 26.9999 15.0026 26.9999Z" fill="#2AED8F"/>
</g>
<defs>
<clipPath id="clip0_26_92">
<rect width="30" height="30" fill="white"/>
</clipPath>
</defs>
</svg>
