<svg width="1820" height="102" viewBox="0 0 1820 102" fill="none" xmlns="http://www.w3.org/2000/svg">
<g clip-path="url(#clip0_19_61)">
<path fill-rule="evenodd" clip-rule="evenodd" d="M1820 10C1820 4.47715 1815.52 0 1810 0H10C4.47715 0 0 4.47715 0 10V76C0 81.5229 4.47716 86 10 86H1429.93C1434.68 86 1438.77 89.3451 1439.72 94C1440.66 98.6549 1444.76 102 1449.51 102H1751.49C1756.24 102 1760.34 98.6549 1761.28 94C1762.23 89.3451 1766.32 86 1771.07 86H1810C1815.52 86 1820 81.5229 1820 76V10Z" fill="#292D32" fill-opacity="0.4"/>
<mask id="mask0_19_61" style="mask-type:luminance" maskUnits="userSpaceOnUse" x="0" y="0" width="1820" height="102">
<path fill-rule="evenodd" clip-rule="evenodd" d="M1820 10C1820 4.47715 1815.52 0 1810 0H10C4.47715 0 0 4.47715 0 10V76C0 81.5229 4.47716 86 10 86H1429.93C1434.68 86 1438.77 89.3451 1439.72 94C1440.66 98.6549 1444.76 102 1449.51 102H1751.49C1756.24 102 1760.34 98.6549 1761.28 94C1762.23 89.3451 1766.32 86 1771.07 86H1810C1815.52 86 1820 81.5229 1820 76V10Z" fill="white"/>
</mask>
<g mask="url(#mask0_19_61)">
<path d="M10 1H1810V-1H10V1ZM1 76V10H-1V76H1ZM1429.93 85H10V87H1429.93V85ZM1449.51 103H1751.49V101H1449.51V103ZM1810 85H1771.07V87H1810V85ZM1819 10V76H1821V10H1819ZM1810 87C1816.08 87 1821 82.0751 1821 76H1819C1819 80.9706 1814.97 85 1810 85V87ZM1762.26 94.1991C1763.11 90.0102 1766.8 87 1771.07 87V85C1765.84 85 1761.34 88.68 1760.3 93.8009L1762.26 94.1991ZM1751.49 103C1756.72 103 1761.22 99.32 1762.26 94.1991L1760.3 93.8009C1759.45 97.9898 1755.77 101 1751.49 101V103ZM1438.74 94.1991C1439.78 99.32 1444.28 103 1449.51 103V101C1445.23 101 1441.55 97.9898 1440.7 93.8009L1438.74 94.1991ZM1429.93 87C1434.2 87 1437.89 90.0102 1438.74 94.1991L1440.7 93.8009C1439.66 88.68 1435.16 85 1429.93 85V87ZM-1 76C-1 82.0751 3.92488 87 10 87V85C5.02945 85 1 80.9706 1 76H-1ZM1810 1C1814.97 1 1819 5.02943 1819 10H1821C1821 3.92487 1816.08 -1 1810 -1V1ZM10 -1C3.92487 -1 -1 3.92487 -1 10H1C1 5.02944 5.02944 1 10 1V-1Z" fill="#262C33"/>
</g>
</g>
<defs>
<clipPath id="clip0_19_61">
<rect width="1820" height="102" fill="white"/>
</clipPath>
</defs>
</svg>
