<svg width="20" height="20" viewBox="0 0 20 20" fill="none" xmlns="http://www.w3.org/2000/svg">
<g clip-path="url(#clip0_18_36)">
<path d="M7.00011 10.5L4.50011 13L7.00011 15.5L9.50011 13L7.00011 10.5ZM13.0001 0.5C11.3597 0.500026 9.77989 1.12033 8.57768 2.23648C7.37548 3.35262 6.63976 4.88206 6.51811 6.518C5.27701 6.61026 4.08848 7.05689 3.09376 7.8048C2.09903 8.55271 1.33993 9.57047 0.906649 10.7371C0.473367 11.9038 0.384121 13.1703 0.649517 14.3862C0.914913 15.6021 1.52379 16.7163 2.40381 17.5963C3.28382 18.4763 4.39797 19.0852 5.61387 19.3506C6.82977 19.616 8.09631 19.5267 9.26298 19.0935C10.4296 18.6602 11.4474 17.9011 12.1953 16.9064C12.9432 15.9116 13.3898 14.7231 13.4821 13.482C15.1594 13.3569 16.7228 12.5866 17.844 11.3328C18.9651 10.0791 19.5566 8.43958 19.4942 6.75883C19.4318 5.07808 18.7204 3.48695 17.5093 2.3198C16.2983 1.15265 14.682 0.500362 13.0001 0.5ZM13.3231 11.489C13.043 10.3211 12.4452 9.25344 11.5959 8.40417C10.7467 7.55491 9.67903 6.95714 8.51111 6.677C8.57314 5.81679 8.88106 4.99252 9.39821 4.30232C9.91536 3.61213 10.6199 3.08508 11.4281 2.78392C12.2363 2.48276 13.1139 2.42018 13.9566 2.60363C14.7994 2.78708 15.5716 3.20883 16.1814 3.81867C16.7913 4.42851 17.213 5.20076 17.3965 6.04347C17.5799 6.88618 17.5174 7.76385 17.2162 8.57201C16.915 9.38017 16.388 10.0848 15.6978 10.6019C15.0076 11.1191 14.1833 11.427 13.3231 11.489ZM11.5001 13C11.5001 14.1935 11.026 15.3381 10.1821 16.182C9.33818 17.0259 8.19359 17.5 7.00011 17.5C5.80664 17.5 4.66205 17.0259 3.81813 16.182C2.97422 15.3381 2.50011 14.1935 2.50011 13C2.50011 11.8065 2.97422 10.6619 3.81813 9.81802C4.66205 8.97411 5.80664 8.5 7.00011 8.5C8.19359 8.5 9.33818 8.97411 10.1821 9.81802C11.026 10.6619 11.5001 11.8065 11.5001 13ZM1.00011 5C1.00011 3.93913 1.42154 2.92172 2.17169 2.17157C2.92183 1.42143 3.93925 1 5.00011 1H6.50011V3H5.00011C4.46968 3 3.96097 3.21071 3.5859 3.58579C3.21083 3.96086 3.00011 4.46957 3.00011 5V6.5H1.00011V5ZM17.0001 15V13.5H19.0001V15C19.0001 16.0609 18.5787 17.0783 17.8285 17.8284C17.0784 18.5786 16.061 19 15.0001 19H13.5001V17H15.0001C15.5305 17 16.0393 16.7893 16.4143 16.4142C16.7894 16.0391 17.0001 15.5304 17.0001 15Z" fill="url(#paint0_linear_18_36)"/>
</g>
<defs>
<linearGradient id="paint0_linear_18_36" x1="2.48154" y1="11.4844" x2="30.6872" y2="11.522" gradientUnits="userSpaceOnUse">
<stop stop-color="#FE5E35"/>
<stop offset="0.55" stop-color="#F67702"/>
<stop offset="1" stop-color="#FFEF76"/>
</linearGradient>
<clipPath id="clip0_18_36">
<rect width="20" height="20" fill="white"/>
</clipPath>
</defs>
</svg>
