<svg width="24" height="24" viewBox="0 0 24 24" fill="none" xmlns="http://www.w3.org/2000/svg">
<path fill-rule="evenodd" clip-rule="evenodd" d="M10.7471 2.56699C11.0993 2.36361 11.4957 2.2492 11.9021 2.23369C12.3085 2.21818 12.7125 2.30204 13.0791 2.47799L13.2471 2.56699L19.5411 6.19999C19.8951 6.40428 20.1936 6.69224 20.4105 7.03864C20.6273 7.38505 20.756 7.77934 20.7851 8.18699L20.7911 8.36499V15.633C20.791 16.0416 20.6908 16.4439 20.4992 16.8048C20.3076 17.1656 20.0305 17.474 19.6921 17.703L19.5421 17.798L13.2471 21.432C12.895 21.6354 12.4985 21.7498 12.0921 21.7653C11.6858 21.7808 11.2818 21.6969 10.9151 21.521L10.7471 21.431L4.45313 17.8C4.09916 17.5957 3.80067 17.3078 3.58379 16.9613C3.36692 16.6149 3.23828 16.2206 3.20913 15.813L3.20312 15.635V8.36599C3.20333 7.95733 3.30372 7.55495 3.49548 7.19408C3.68725 6.83321 3.96456 6.52484 4.30314 6.29599L4.45313 6.20099L10.7471 2.56699ZM12.2471 4.29899C12.184 4.26261 12.1138 4.24045 12.0412 4.23406C11.9687 4.22767 11.8956 4.2372 11.8271 4.26199L11.7471 4.29899L5.45313 7.93299C5.39012 7.96942 5.33581 8.01916 5.29401 8.07875C5.25221 8.13834 5.22393 8.20634 5.21114 8.27799L5.20313 8.36599V15.634C5.20321 15.7068 5.21917 15.7787 5.24991 15.8447C5.28066 15.9106 5.32545 15.9691 5.38113 16.016L5.45313 16.066L11.7471 19.701C11.8102 19.7374 11.8805 19.7595 11.953 19.7659C12.0256 19.7723 12.0986 19.7628 12.1671 19.738L12.2471 19.701L18.5411 16.067C18.6043 16.0307 18.6588 15.981 18.7008 15.9214C18.7428 15.8618 18.7712 15.7937 18.7841 15.722L18.7911 15.634V8.36599C18.7912 8.29328 18.7754 8.22143 18.7448 8.15546C18.7142 8.08948 18.6696 8.03097 18.6141 7.98399L18.5411 7.93299L12.2471 4.29899ZM11.9971 7.99999C13.058 7.99999 14.0754 8.42142 14.8256 9.17157C15.5757 9.92171 15.9971 10.9391 15.9971 12C15.9971 13.0609 15.5757 14.0783 14.8256 14.8284C14.0754 15.5786 13.058 16 11.9971 16C10.9363 16 9.91884 15.5786 9.1687 14.8284C8.41855 14.0783 7.99712 13.0609 7.99712 12C7.99712 10.9391 8.41855 9.92171 9.1687 9.17157C9.91884 8.42142 10.9363 7.99999 11.9971 7.99999ZM11.9971 9.99999C11.4667 9.99999 10.958 10.2107 10.5829 10.5858C10.2078 10.9609 9.99712 11.4696 9.99712 12C9.99712 12.5304 10.2078 13.0391 10.5829 13.4142C10.958 13.7893 11.4667 14 11.9971 14C12.5276 14 13.0363 13.7893 13.4113 13.4142C13.7864 13.0391 13.9971 12.5304 13.9971 12C13.9971 11.4696 13.7864 10.9609 13.4113 10.5858C13.0363 10.2107 12.5276 9.99999 11.9971 9.99999Z" fill="white"/>
</svg>
