<svg width="616" height="429" viewBox="0 0 616 429" fill="none" xmlns="http://www.w3.org/2000/svg">
<g clip-path="url(#clip0_1_2)">
<path d="M1 335.216V41.5C1 30.7304 9.73045 22 20.5 22H21.7157C27.1527 22 32.3669 19.8402 36.2114 15.9957L45.9957 6.21142C49.6526 2.55446 54.6125 0.5 59.7843 0.5H173.216C178.387 0.5 183.347 2.55446 187.004 6.21142L196.789 15.9957C200.633 19.8402 205.847 22 211.284 22H555.445C560.484 22 565.328 23.9509 568.96 27.4438L609.016 65.9587C612.839 69.6351 615 74.7106 615 80.0149V397.213C615 402.673 612.711 407.882 608.69 411.575L596.4 422.862C592.802 426.167 588.095 428 583.21 428H441.784C436.613 428 431.653 425.946 427.996 422.289L417.211 411.504C413.367 407.66 408.153 405.5 402.716 405.5H253.284C247.847 405.5 242.633 407.66 238.789 411.504L228.004 422.289C224.347 425.946 219.387 428 214.216 428H93.7843C88.6125 428 83.6527 425.946 79.9957 422.289L6.71142 349.004C3.05446 345.347 1 340.387 1 335.216Z" fill="#292D32" fill-opacity="0.4" stroke="#262C33"/>
</g>
<defs>
<clipPath id="clip0_1_2">
<rect width="616" height="429" fill="white"/>
</clipPath>
</defs>
</svg>
