<svg width="41" height="42" viewBox="0 0 41 42" fill="none" xmlns="http://www.w3.org/2000/svg">
<g clip-path="url(#clip0_26_97)">
<path d="M31 1H10C4.75329 1 0.5 5.25329 0.5 10.5V31.5C0.5 36.7467 4.75329 41 10 41H31C36.2467 41 40.5 36.7467 40.5 31.5V10.5C40.5 5.25329 36.2467 1 31 1Z" fill="#292D32" fill-opacity="0.4" stroke="#262C33"/>
<path d="M20.5026 29.5443C15.785 29.5443 11.9609 25.7202 11.9609 21.0026C11.9609 16.285 15.785 12.4609 20.5026 12.4609C25.2202 12.4609 29.0443 16.285 29.0443 21.0026C29.0443 25.7202 25.2202 29.5443 20.5026 29.5443ZM20.5026 27.8359C22.3149 27.8359 24.053 27.116 25.3345 25.8345C26.616 24.553 27.3359 22.8149 27.3359 21.0026C27.3359 19.1903 26.616 17.4522 25.3345 16.1707C24.053 14.8892 22.3149 14.1693 20.5026 14.1693C18.6903 14.1693 16.9522 14.8892 15.6707 16.1707C14.3892 17.4522 13.6693 19.1903 13.6693 21.0026C13.6693 22.8149 14.3892 24.553 15.6707 25.8345C16.9522 27.116 18.6903 27.8359 20.5026 27.8359ZM20.5026 16.7745L24.7307 21.0026L20.5026 25.2307L16.2745 21.0026L20.5026 16.7745ZM20.5026 19.1901L18.6909 21.0026L20.5017 22.8143L22.3143 21.0026L20.5026 19.1901Z" fill="url(#paint0_linear_26_97)"/>
</g>
<defs>
<linearGradient id="paint0_linear_26_97" x1="13.7427" y1="22.3372" x2="39.1048" y2="22.371" gradientUnits="userSpaceOnUse">
<stop stop-color="#FE5E35"/>
<stop offset="0.55" stop-color="#F67702"/>
<stop offset="1" stop-color="#FFEF76"/>
</linearGradient>
<clipPath id="clip0_26_97">
<rect width="41" height="42" fill="white"/>
</clipPath>
</defs>
</svg>
