<svg width="24" height="24" viewBox="0 0 24 24" fill="none" xmlns="http://www.w3.org/2000/svg">
<path d="M18 12H16V16H18V12Z" fill="url(#paint0_linear_18_31)"/>
<path fill-rule="evenodd" clip-rule="evenodd" d="M18 3C19.103 3 20 3.897 20 5V7C21.103 7 22 7.897 22 9V19C22 20.103 21.103 21 20 21H5C3.794 21 2 20.201 2 18V6C2 4.346 3.346 3 5 3H18ZM18 5H5C4.74252 5.01152 4.49941 5.12191 4.32128 5.30818C4.14315 5.49446 4.04373 5.74226 4.04373 6C4.04373 6.25774 4.14315 6.50554 4.32128 6.69182C4.49941 6.87809 4.74252 6.98848 5 7H18V5ZM5.012 19H20V9H5C4.647 9 4.314 8.928 4 8.815V18C4 18.805 4.55 18.988 5.012 19Z" fill="url(#paint1_linear_18_31)"/>
<defs>
<linearGradient id="paint0_linear_18_31" x1="4.08597" y1="13.4062" x2="33.7781" y2="13.4501" gradientUnits="userSpaceOnUse">
<stop stop-color="#FE5E35"/>
<stop offset="0.55" stop-color="#F67702"/>
<stop offset="1" stop-color="#FFEF76"/>
</linearGradient>
<linearGradient id="paint1_linear_18_31" x1="4.08597" y1="13.4062" x2="33.7781" y2="13.4501" gradientUnits="userSpaceOnUse">
<stop stop-color="#FE5E35"/>
<stop offset="0.55" stop-color="#F67702"/>
<stop offset="1" stop-color="#FFEF76"/>
</linearGradient>
</defs>
</svg>
